<svg width="52" height="44" fill="none" xmlns="http://www.w3.org/2000/svg">
  <path d="M37.3988 36.5498V14.45H3.39893v22.0998c0 .939.76106 1.7 1.69999 1.7H35.6988c.9389 0 1.7-.761 1.7-1.7Z" fill="#289BC3"/>
  <path d="M13.6015 33.1498h-3.4c-2.81664 0-5.09994 2.2833-5.09994 5.1 0 2.8166 2.2833 5.0999 5.09994 5.0999h3.4c2.8167 0 5.1-2.2833 5.1-5.0999 0-2.8167-2.2833-5.1-5.1-5.1Zm30.5972 0h-3.4c-2.8167 0-5.1 2.2833-5.1 5.1 0 2.8167 2.2833 5.1 5.1 5.1h3.4c2.8167 0 5.1-2.2833 5.1-5.1 0-2.8167-2.2833-5.1-5.1-5.1Z" fill="#32283C"/>
  <path d="M40.7987 43.3498c2.8166 0 5.1-2.2833 5.1-5.1 0-2.8166-2.2834-5.1-5.1-5.1-2.8166 0-5.1 2.2834-5.1 5.1 0 2.8167 2.2834 5.1 5.1 5.1Z" fill="#555A6E"/>
  <path d="M40.7976 39.9498c.9389 0 1.7-.7611 1.7-1.7s-.7611-1.7-1.7-1.7c-.9388 0-1.6999.7611-1.6999 1.7s.7611 1.7 1.6999 1.7Z" fill="#E6E6EB"/>
  <path d="M30.601 33.1498h-3.4c-2.8166 0-5.0999 2.2833-5.0999 5.1 0 2.8167 2.2833 5.1 5.0999 5.1h3.4c2.8167 0 5.1-2.2833 5.1-5.1 0-2.8167-2.2833-5.1-5.1-5.1Z" fill="#32283C"/>
  <path d="M47.6022 16.15H22.1023c-.9389 0-1.7.761-1.7 1.7v1.6999h27.1999c.9389 0 1.7-.761 1.7-1.6999 0-.939-.7611-1.7-1.7-1.7Z" fill="#A5C3DC"/>
  <path d="M30.6023 16.15h-8.5c-.9389 0-1.7.761-1.7 1.7v1.6999h10.2c.9389 0 1.7-.761 1.7-1.6999 0-.939-.7611-1.7-1.7-1.7Z" fill="#D7E6F0"/>
  <path d="M20.4023 19.5499h27.1999v8.4999H20.4023v-8.4999Z" fill="#463C4B"/>
  <path d="M20.4023 19.5499h10.2v8.4999h-10.2v-8.4999Z" fill="#555A6E"/>
  <path d="M49.3022 38.2498H22.1023c-.9389 0-1.7-.7611-1.7-1.7v-8.5h27.1999c1.8777 0 3.4 1.5222 3.4 3.4v5.1c0 .9389-.7611 1.7-1.7 1.7Z" fill="#A5C3DC"/>
  <path d="M32.3023 38.2498h-10.2c-.9389 0-1.7-.7611-1.7-1.7v-8.5h10.2c1.8777 0 3.4 1.5222 3.4 3.4v5.1c0 .9389-.7611 1.7-1.7 1.7Z" fill="#D7E6F0"/>
  <path d="M38.1072 31.4498h8.7833c1.3301 0 2.4083 1.0782 2.4083 2.4084 0 1.33-1.0783 2.4083-2.4084 2.4083h-8.7833c-1.33 0-2.4084-1.0782-2.4084-2.4083.0001-1.3302 1.0784-2.4084 2.4085-2.4084Z" fill="#555A6E"/>
  <path d="M38.1109 35.1332c.7042 0 1.275-.5709 1.275-1.275 0-.7042-.5708-1.275-1.275-1.275-.7041 0-1.275.5708-1.275 1.275 0 .7041.5709 1.275 1.275 1.275Zm8.7774 0c.7041 0 1.275-.5709 1.275-1.275 0-.7042-.5709-1.275-1.275-1.275-.7042 0-1.275.5708-1.275 1.275 0 .7041.5708 1.275 1.275 1.275Z" fill="#00D2D2"/>
  <path d="M16.1497 0h-5.1c-.4694 0-.85.380586-.85.849996 0 .469414.3806.849994.85.849994 3.2808 0 5.95 2.6692 5.95 5.94997 0 .46941.3806.85.85.85h5.0999c.4695 0 .85-.38059.85-.85C23.7996 3.43175 20.3679 0 16.1497 0Z" fill="#A5C3DC"/>
  <path d="M29.7494 0h-5.0999c-4.2182 0-7.65 3.43175-7.65 7.64996 0 .46941.3806.85.85.85h5.1c.4694 0 .85-.38059.85-.85 0-3.28077 2.6692-5.94997 5.9499-5.94997.4695 0 .85-.38058.85-.849994 0-.46941-.3805-.849996-.85-.849996Z" fill="#A5C3DC"/>
  <path d="M33.1497 0h-5.1c-.4694 0-.85.380586-.85.849996 0 .469414.3806.849994.85.849994 1.4061 0 2.55 1.14388 2.55 2.54999 0 1.4061-1.1439 2.54998-2.55 2.54998-.4694 0-.85.38059-.85.85s.3806.85.85.85h5.1c2.3434 0 4.25-1.90654 4.25-4.24998S35.4931 0 33.1497 0ZM12.7489 6.79996c-1.4061 0-2.55-1.14388-2.55-2.54998 0-1.40611 1.1439-2.54999 2.55-2.54999.4694 0 .85-.38058.85-.849994 0-.46941-.3806-.849996-.85-.849996h-5.1C5.30547 0 3.39893 1.90654 3.39893 4.24998S5.30547 8.49996 7.6489 8.49996h5.1c.4694 0 .85-.38059.85-.85s-.3806-.85-.85-.85Z" fill="#A5C3DC"/>
  <path d="M39.0998 8.49994H1.69999C.761065 8.49994 0 9.261 0 10.1999v2.55c0 .9389.761065 1.7 1.69999 1.7H39.0998c.9389 0 1.7-.7611 1.7-1.7v-2.55c0-.9389-.7611-1.69996-1.7-1.69996Z" fill="#289BC3"/>
  <path d="M18.6988 38.2498H5.09892c-.93893 0-1.69999-.7611-1.69999-1.7V19.5499H20.3988v16.9999c0 .9389-.761 1.7-1.7 1.7Zm1.7011-29.74986H1.69999C.761065 8.49994 0 9.261 0 10.1999v2.55c0 .9389.761065 1.7 1.69999 1.7H20.3999c.9389 0 1.7-.7611 1.7-1.7v-2.55c0-.9389-.7611-1.69996-1.7-1.69996Z" fill="#00D2D2"/>
  <path d="M11.8978 12.7499c0 .9389.7611 1.7 1.7 1.7H8.49784c-.93892 0-1.69999-.7611-1.69999-1.7v-2.55c0-.9389.76107-1.69996 1.69999-1.69996h5.09996c-.9389 0-1.7.76106-1.7 1.69996v2.55Z" fill="#D7E6F0"/>
  <path d="M28.9031 12.75c0 .9389-.761 1.7-1.7 1.7h5.1c.9389 0 1.7-.7611 1.7-1.7V10.2c0-.93894-.7611-1.7-1.7-1.7h-5.1c.939 0 1.7.76106 1.7 1.7v2.55Z" fill="#A5C3DC"/>
  <path d="M28.0529 8.49996h-11.05v-.85C17.0029 3.43175 20.4347 0 24.6529 0h3.4c2.3434 0 4.2499 1.90654 4.2499 4.24998s-1.9065 4.24998-4.2499 4.24998Zm-9.2894-1.7h9.2894c1.4061 0 2.55-1.14388 2.55-2.54998 0-1.40611-1.1439-2.54999-2.55-2.54999h-3.4c-2.9923 0-5.4758 2.2203-5.8894 5.09997Z" fill="#D7E6F0"/>
  <path d="M18.6988 8.49996H7.6489c-2.34343 0-4.24997-1.90654-4.24997-4.24998S5.30547 0 7.6489 0h3.4c4.2182 0 7.6499 3.43175 7.6499 7.64996v.85ZM7.6489 1.69999c-1.4061 0-2.54998 1.14388-2.54998 2.54999 0 1.4061 1.14388 2.54998 2.54998 2.54998h9.2894c-.4137-2.87967-2.8972-5.09997-5.8894-5.09997h-3.4Z" fill="#D7E6F0"/>
  <path d="M27.201 43.3498c2.8167 0 5.1-2.2833 5.1-5.1 0-2.8166-2.2833-5.1-5.1-5.1-2.8166 0-5.0999 2.2834-5.0999 5.1 0 2.8167 2.2833 5.1 5.0999 5.1Z" fill="#555A6E"/>
  <path d="M27.2 39.9498c.9389 0 1.7-.7611 1.7-1.7s-.7611-1.7-1.7-1.7-1.7.7611-1.7 1.7.7611 1.7 1.7 1.7Z" fill="#E6E6EB"/>
  <path d="M10.2015 43.3497c2.8167 0 5.1-2.2833 5.1-5.0999 0-2.8167-2.2833-5.1-5.1-5.1-2.8166 0-5.09994 2.2833-5.09994 5.1 0 2.8166 2.28334 5.0999 5.09994 5.0999Z" fill="#555A6E"/>
  <path d="M10.1966 39.9498c.9389 0 1.7-.7611 1.7-1.7s-.7611-1.7-1.7-1.7c-.93891 0-1.70002.7611-1.70002 1.7s.76111 1.7 1.70002 1.7Z" fill="#E6E6EB"/>
</svg>
