<svg width="44" height="44" fill="none" xmlns="http://www.w3.org/2000/svg">
  <path d="M35.5745 30.3717h-23.031c-.5156 0-.9336-.418-.9336-.9336v-10.758c0-.5156.418-.9336.9336-.9336h23.031c.5156 0 .9336.418.9336.9336v10.758c.0002.5155-.4178.9336-.9336.9336Z" fill="url(#a)"/>
  <path d="m11.6352 29.0499 1.3218 1.3218h22.6175c.5156 0 .9336-.418.9336-.9336v-10.758c0-.5156-.418-.9337-.9336-.9337h-23.031c-.5156 0-.9336.418-.9336.9337v10.3155l.0253.0543Z" fill="url(#b)"/>
  <path d="M34.1717 28.9714h-23.031c-.5157 0-.9337-.418-.9337-.9336V17.2797c0-.5156.418-.9336.9337-.9336h23.031c.5156 0 .9336.418.9336.9336v10.758c0 .5157-.418.9337-.9336.9337Z" fill="url(#c)"/>
  <path d="m10.2322 27.6496 1.3218 1.3218h22.6175c.5156 0 .9336-.418.9336-.9337v-10.758c0-.5157-.418-.9338-.9336-.9338H11.1407c-.5157 0-.9337.418-.9337.9338v10.3155l.0252.0544Z" fill="url(#d)"/>
  <path d="M32.7737 27.5709H9.74271c-.51563 0-.93363-.418-.93363-.9336v-10.758c0-.5156.418-.9336.93363-.9336H32.7737c.5157 0 .9337.418.9337.9336v10.758c0 .5156-.418.9336-.9337.9336Z" fill="url(#e)"/>
  <path d="m8.83443 26.2491 1.32177 1.3218h22.6175c.5157 0 .9337-.418.9337-.9336v-10.758c0-.5156-.418-.9336-.9337-.9336H9.74271c-.51563 0-.93363.418-.93363.9336v10.3155l.02535.0543Z" fill="url(#f)"/>
  <path d="M31.4573 26.2535H8.4263c-.51563 0-.93362-.418-.93362-.9336v-10.758c0-.5156.41799-.9336.93362-.9336h23.031c.5157 0 .9337.418.9337.9336v10.7579c0 .5156-.418.9337-.9337.9337Z" fill="url(#g)"/>
  <path d="M30.9827 16.2974c-.6756-.0351-1.2277-.5886-1.2628-1.2641-.0077-.1494.0097-.2935.0476-.4293h-19.655c.0379.1356.0554.2798.0476.4293-.0352.6755-.58731 1.229-1.26278 1.264-.23109.012-.44997-.035-.64341-.1269v7.5407c.19361-.092.41267-.139.64384-.127.67555.0353 1.22745.589 1.26235 1.2646.0076.1493-.0097.2932-.0476.4288h19.655c-.0379-.1355-.0553-.2795-.0476-.4288.0349-.6756.5868-1.2293 1.2623-1.2646.2312-.0121.4503.0349.6438.127v-7.5407c-.1933.092-.4123.1389-.6433.127Z" fill="url(#h)"/>
  <path d="M19.94 23.1735c1.7855 0 3.2329-1.4475 3.2329-3.233s-1.4474-3.2329-3.2329-3.2329c-1.7855 0-3.233 1.4474-3.233 3.2329 0 1.7855 1.4475 3.233 3.233 3.233Z" fill="url(#i)"/>
  <path d="M15.4964 15.7917h-4.9652v1.4284h4.9652v-1.4284Z" fill="url(#j)"/>
  <path d="M29.3479 22.6617h-4.9651V24.09h4.9651v-1.4283Z" fill="url(#k)"/>
  <path d="M42.7321 9.97251c-.89-.32562-1.8641.04609-2.3271.83579-1.4597-2.40948-3.3869-4.5176-5.7081-6.22097C30.9772 1.85813 26.5661.415588 21.9402.415588c-4.626 0-9.0372 1.442542-12.75675 4.171742-3.64297 2.673-6.31699 6.34217-7.73315 10.61047-.33576 1.0121.21252 2.1048 1.2246 2.4406 1.01243.3359 2.10487-.2125 2.44054-1.2246C6.27791 12.91 8.47456 9.89706 11.4679 7.70067c3.0525-2.23979 6.6737-3.42374 10.4723-3.42374 3.7986 0 7.4196 1.18395 10.4722 3.42383 1.7827 1.30796 3.2826 2.90574 4.4499 4.72414-.8882-.1335-1.7776.3701-2.0982 1.2465-.3665 1.0015.1483 2.1103 1.1497 2.4767l4.0203 1.471c.0096.0036.0194.0059.029.0092.0338.0118.0678.0225.1022.0323.0184.0053.0367.0107.0551.0155.0347.0089.0697.0163.1049.0233.018.0035.0359.0076.0538.0106.0374.0063.075.0107.1129.0149.0154.0016.0308.0042.0462.0054.0527.0044.1057.0069.159.0069h.0001c.0501 0 .1001-.0021.1496-.0059.0118-.001.0236-.0029.0355-.0041.0381-.0037.0762-.0076.1139-.0136.0146-.0023.0291-.0058.0438-.0084.0352-.0064.0702-.013.1048-.0213.0162-.0038.0323-.0088.0485-.0132.0329-.0087.0654-.0176.0976-.028.0048-.0016.0096-.0026.0145-.0042.0095-.0031.0185-.0075.028-.0108.0426-.0149.0846-.0311.126-.0489.0178-.0075.0355-.0152.0529-.0233.0403-.0188.08-.0392.119-.0607.0124-.0068.0252-.0129.0375-.02.0469-.0272.0924-.057.137-.0882.0175-.0122.0341-.0252.0509-.0379.0297-.0224.0589-.0454.0875-.0695.0156-.0132.0311-.0264.0463-.0402.0325-.0293.0639-.0599.0944-.0914.0085-.0088.0176-.0171.0258-.0261.0398-.0427.0779-.0873.1139-.1339.0025-.0033.0047-.0067.0072-.01.0321-.0421.0625-.0859.0913-.131.0076-.0122.0149-.0245.0223-.0367.0223-.0367.0433-.074.0634-.1124.0081-.0159.0164-.0316.0241-.0477.0175-.036.0335-.0727.0489-.1102.0071-.0174.0148-.0345.0214-.052.0022-.006.0051-.0118.0073-.0179l1.4711-4.0202c.3665-1.0016-.1483-2.1106-1.1496-2.47699Z" fill="url(#l)"/>
  <path d="M1.26782 34.0273c.88996.3256 1.86406-.046 2.32709-.8358 1.45974 2.4095 3.38688 4.5176 5.70813 6.221 3.71956 2.7292 8.13076 4.1719 12.75676 4.1719 4.6259 0 9.0371-1.4426 12.7567-4.1719 3.6429-2.673 6.317-6.3421 7.7332-10.6105.3358-1.0121-.2125-2.1048-1.2246-2.4405-1.0124-.3359-2.1049.2125-2.4405 1.2246-1.1625 3.5037-3.3592 6.5167-6.3525 8.7131-3.0525 2.2397-6.6737 3.4237-10.4723 3.4237-3.7986 0-7.4196-1.1839-10.4722-3.4237-1.78268-1.308-3.28263-2.9058-4.44992-4.7242.88825.1335 1.77761-.3701 2.09825-1.2465.36652-1.0013-.14833-2.1103-1.14976-2.4767l-4.02023-1.471c-.00963-.0035-.01942-.0058-.02905-.0092-.03377-.0118-.0678-.0224-.10218-.0323-.01839-.0053-.03669-.0107-.05508-.0155-.03472-.0088-.0697-.0163-.10493-.0233-.01797-.0035-.03593-.0076-.0538-.0106-.03738-.0063-.07502-.0107-.11292-.0149-.01539-.0016-.03077-.0042-.04615-.0054-.05268-.0044-.1057-.0069-.15899-.0069h-.00017c-.0501 0-.10003.0021-.14953.0059-.01186.001-.02363.003-.03549.0041-.03816.0037-.07623.0076-.11395.0136-.01461.0024-.02914.0058-.04383.0085-.03515.0063-.07013.0129-.10476.0212-.01624.0039-.03231.0089-.04855.0132-.03275.0087-.0654.0177-.09754.028-.00481.0016-.00963.0026-.01453.0042-.00953.0032-.01847.0075-.02801.0108-.04254.015-.08456.0311-.12599.0489-.01778.0076-.03549.0152-.05285.0233-.04039.0188-.08.0392-.11902.0607-.01237.0068-.02527.0129-.03747.02-.04692.0272-.09247.057-.13707.0882-.01744.0122-.03403.0252-.05087.0379-.02974.0224-.05896.0454-.08749.0695-.01564.0132-.03111.0264-.04632.0402-.03248.0293-.06394.0599-.09444.0914-.00842.0088-.01753.0171-.02578.0261-.03979.0427-.07786.0874-.11387.1339-.00249.0033-.00473.0068-.00722.01-.03205.0421-.06248.086-.09127.1311-.00764.0121-.01495.0244-.02234.0367-.02226.0366-.04331.074-.06333.1124-.00817.0158-.01642.0315-.02415.0476-.01745.036-.03352.0728-.0489.1102-.00713.0174-.01478.0345-.0214.052-.00223.006-.00507.0118-.0073.0179L.118148 31.5506C-.248374 32.552.26639 33.661 1.26782 34.0273Z" fill="url(#m)"/>
  <defs>
    <linearGradient id="a" x1="11.6096" y1="24.0595" x2="36.5074" y2="24.0595" gradientUnits="userSpaceOnUse">
      <stop stop-color="#61DB99"/>
      <stop offset="1" stop-color="#009E74"/>
    </linearGradient>
    <linearGradient id="b" x1="25.1839" y1="27.8652" x2="23.8777" y2="23.1176" gradientUnits="userSpaceOnUse">
      <stop stop-color="#009E74" stop-opacity="0"/>
      <stop offset="1" stop-color="#009E74"/>
    </linearGradient>
    <linearGradient id="c" x1="10.2068" y1="22.6592" x2="35.1046" y2="22.6592" gradientUnits="userSpaceOnUse">
      <stop stop-color="#61DB99"/>
      <stop offset="1" stop-color="#009E74"/>
    </linearGradient>
    <linearGradient id="d" x1="23.6262" y1="27.0378" x2="22.7652" y2="22.9139" gradientUnits="userSpaceOnUse">
      <stop stop-color="#009E74" stop-opacity="0"/>
      <stop offset="1" stop-color="#009E74"/>
    </linearGradient>
    <linearGradient id="e" x1="8.80886" y1="21.2588" x2="33.7067" y2="21.2588" gradientUnits="userSpaceOnUse">
      <stop stop-color="#61DB99"/>
      <stop offset="1" stop-color="#009E74"/>
    </linearGradient>
    <linearGradient id="f" x1="23.1313" y1="28.3975" x2="19.1274" y2="12.5432" gradientUnits="userSpaceOnUse">
      <stop stop-color="#009E74" stop-opacity="0"/>
      <stop offset="1" stop-color="#009E74"/>
    </linearGradient>
    <linearGradient id="g" x1="7.4925" y1="19.9414" x2="32.3903" y2="19.9414" gradientUnits="userSpaceOnUse">
      <stop stop-color="#A7F3CE"/>
      <stop offset="1" stop-color="#61DB99"/>
    </linearGradient>
    <linearGradient id="h" x1="13.4361" y1="13.4378" x2="29.2792" y2="29.2809" gradientUnits="userSpaceOnUse">
      <stop stop-color="#61DB99"/>
      <stop offset="1" stop-color="#009E74"/>
    </linearGradient>
    <linearGradient id="i" x1="18.0157" y1="18.0172" x2="22.7028" y2="22.7044" gradientUnits="userSpaceOnUse">
      <stop stop-color="#A7F3CE"/>
      <stop offset="1" stop-color="#61DB99"/>
    </linearGradient>
    <linearGradient id="j" x1="11.6688" y1="15.1618" x2="14.9455" y2="18.4384" gradientUnits="userSpaceOnUse">
      <stop stop-color="#A7F3CE"/>
      <stop offset="1" stop-color="#61DB99"/>
    </linearGradient>
    <linearGradient id="k" x1="25.5196" y1="22.0312" x2="28.7963" y2="25.3078" gradientUnits="userSpaceOnUse">
      <stop stop-color="#A7F3CE"/>
      <stop offset="1" stop-color="#61DB99"/>
    </linearGradient>
    <linearGradient id="l" x1="1.35154" y1="9.07718" x2="43.999" y2="9.07718" gradientUnits="userSpaceOnUse">
      <stop stop-color="#FFB92D"/>
      <stop offset="1" stop-color="#F59500"/>
    </linearGradient>
    <radialGradient id="m" cx="0" cy="0" r="1" gradientUnits="userSpaceOnUse" gradientTransform="rotate(180 11.1419 11.0691) scale(21.8589)">
      <stop stop-color="#BE3F45"/>
      <stop offset=".317" stop-color="#C14046"/>
      <stop offset=".538" stop-color="#CA4148"/>
      <stop offset=".729" stop-color="#D9444B"/>
      <stop offset=".902" stop-color="#EF4950"/>
      <stop offset="1" stop-color="#FF4C54"/>
    </radialGradient>
  </defs>
</svg>
