<svg width="54" height="54" fill="none" xmlns="http://www.w3.org/2000/svg">
  <path d="M43.6875 30.375h-8.25c-.2238 0-.4384-.0889-.5966-.2471-.1583-.1583-.2471-.3729-.2471-.5967 0-.2237.0888-.4383.2471-.5966.1582-.1582.3728-.2471.5966-.2471h8.25c.2238 0 .4384.0889.5966.2471.1582.1583.2471.3729.2471.5966 0 .2238-.0889.4384-.2471.5967-.1582.1582-.3728.2471-.5966.2471Z" fill="#E0E2E5"/>
  <path d="M25.3125 19.4062 27 39.6562v1.6876h10.125v-1.6876l1.6875-20.25h-13.5Z" fill="#93573D"/>
  <path d="M16.875 19.4062v-.8437H13.5v2.5313h-3.375v8.4374h6.75v-.8437h3.375v-9.2813h-3.375Z" fill="#FDD14B"/>
  <path d="M13.5 32.0625c-.2238 0-.4384-.0889-.5966-.2471-.1583-.1583-.2472-.3729-.2472-.5966v-9.2813c0-.2238.0889-.4384.2472-.5966.1582-.1583.3728-.2471.5966-.2471s.4384.0888.5966.2471c.1583.1582.2472.3728.2472.5966v9.2813c0 .2237-.0889.4383-.2472.5966-.1582.1582-.3728.2471-.5966.2471Zm3.4957 1.6875c-.2224 0-.4358-.0878-.5938-.2443-.158-.1565-.2478-.3691-.25-.5915l-.1206-12.6562c-.0021-.2238.0847-.4392.2414-.599.1568-.1597.3705-.2506.5943-.2528.2238-.0021.4393.0848.599.2415.1597.1567.2507.3705.2528.5943l.1205 12.6562c.0022.2238-.0847.4392-.2413.5989-.1567.1598-.3704.2507-.5942.2529h-.0081Z" fill="#E4BC43"/>
  <path d="m9.28125 27.8438 1.68755 11.8124v1.6876h10.125v-13.5H9.28125Z" fill="#E74444"/>
  <path d="M48.9375 30.375H47.25c-.2238 0-.4384-.0889-.5966-.2471-.1583-.1583-.2472-.3729-.2472-.5967 0-.2237.0889-.4383.2472-.5966.1582-.1582.3728-.2471.5966-.2471h1.6875c.2238 0 .4384.0889.5966.2471.1583.1583.2471.3729.2471.5966 0 .2238-.0888.4384-.2471.5967-.1582.1582-.3728.2471-.5966.2471Z" fill="#E0E2E5"/>
  <path d="m38.8125 19.4062-.2816 3.375H25.5941l-.2816-3.375h13.5Z" fill="#A4D4F4"/>
  <path d="M23.6737 14.3437c-.1527-.0001-.3025-.0417-.4334-.1202-.1309-.0785-.2381-.1911-.3101-.3258-.0719-.1346-.106-.2863-.0986-.4388.0074-.1525.0561-.3001.1408-.4271l.8016-1.203c.1196-.1794.166-.3979.1296-.6104-.0364-.2126-.1529-.4031-.3254-.5325l-.8208-.6159c-.5174-.38836-.8664-.96003-.9755-1.59765-.1091-.63763.03-1.29282.3887-1.83112l.8016-1.20308c.0615-.09219.1405-.17138.2326-.23303.092-.06166.1953-.10457.304-.1263.1087-.02173.2205-.02184.3292-.00033.1087.0215.2121.06421.3043.12568.0922.06147.1714.14049.2331.23256.0616.09207.1045.19538.1263.30404.0217.10866.0218.22053.0003.32923-.0215.1087-.0642.2121-.1257.30429l-.8019 1.20298c-.1196.17945-.1659.39789-.1295.61046.0364.21256.1528.40311.3254.5325l.8208.61583c.5175.38833.8666.95994.9758 1.59764.1093.6376-.0297 1.2929-.3884 1.8313l-.8016 1.203c-.0771.1158-.1817.2107-.3044.2763-.1227.0655-.2597.0997-.3988.0994Zm-6.75.0001c-.1527-.0001-.3025-.0416-.4334-.1202-.1309-.0785-.2381-.1911-.3101-.3258-.0719-.1346-.106-.2863-.0986-.4387.0074-.1525.0561-.3002.1408-.4272l.8016-1.203c.1196-.1794.166-.3978.1296-.6104-.0364-.2126-.1529-.4031-.3254-.5325l-.8208-.6159c-.5174-.38833-.8664-.96001-.9755-1.59763-.1091-.63762.03-1.29282.3887-1.83111l.8016-1.20308c.1241-.1862.3172-.31546.5366-.35934.2194-.04388.4473.00121.6335.12535.1862.12414.3155.31716.3594.53661.0438.21944-.0013.44732-.1254.63352l-.8019 1.20297c-.1196.17946-.1659.3979-.1295.61046.0364.21257.1528.40311.3254.53251l.8208.61583c.5175.38832.8666.96001.9758 1.59761.1093.6376-.0297 1.2929-.3884 1.8313l-.8016 1.2031c-.0771.1157-.1817.2106-.3044.2762-.1227.0655-.2597.0997-.3988.0994Zm13.4062-.0001c-.1527-.0001-.3025-.0416-.4334-.1202-.1309-.0785-.2381-.1911-.31-.3258-.072-.1346-.1061-.2863-.0987-.4388.0074-.1525.0561-.3001.1408-.4271l.8021-1.203c.1196-.1794.166-.3979.1296-.6104-.0365-.2126-.1529-.4031-.3254-.5325l-.8209-.6158c-.5174-.38828-.8666-.95992-.9758-1.59756-.1092-.63764.0298-1.2929.3884-1.83129l.8016-1.20308c.1241-.18628.3172-.31562.5367-.35956.1087-.02175.2206-.02189.3293-.0004.1088.02149.2122.06419.3044.12566.0923.06147.1715.1405.2332.23259.0617.09208.1046.19542.1264.30411.0218.10868.0219.22059.0004.32933-.0215.10873-.0642.21217-.1257.30441l-.8015 1.20298c-.1196.17944-.166.39787-.1296.61043.0364.21257.1528.40312.3253.53253l.8209.61583c.5175.38829.8666.95992.9759 1.59762.1092.6376-.0298 1.2929-.3885 1.8313l-.8016 1.2031c-.0772.1158-.1819.2108-.3047.2763-.1228.0656-.26.0997-.3992.0993Zm21.1389 10.9688h-9.2813c-.2238 0-.4384-.0889-.5966-.2471-.1583-.1583-.2471-.3729-.2471-.5966 0-.2238.0888-.4384.2471-.5967.1582-.1582.3728-.2471.5966-.2471h9.2813c.2237 0 .4383.0889.5966.2471.1582.1583.2471.3729.2471.5967 0 .2237-.0889.4383-.2471.5966-.1583.1582-.3729.2471-.5966.2471Zm-5.9063 10.125H40.5c-.2238 0-.4384-.0889-.5966-.2471-.1583-.1583-.2472-.3729-.2472-.5966 0-.2238.0889-.4384.2472-.5967.1582-.1582.3728-.2471.5966-.2471h5.0625c.2238 0 .4384.0889.5966.2471.1583.1583.2471.3729.2471.5967 0 .2237-.0888.4383-.2471.5966-.1582.1582-.3728.2471-.5966.2471Z" fill="#E0E2E5"/>
  <path d="M51.4688 48.9375H2.53125c-.22378 0-.43839-.0889-.59662-.2471-.15824-.1583-.24713-.3729-.24713-.5966 0-.2238.08889-.4384.24713-.5967.15823-.1582.37284-.2471.59662-.2471H51.4688c.2237 0 .4383.0889.5966.2471.1582.1583.2471.3729.2471.5967 0 .2237-.0889.4383-.2471.5966-.1583.1582-.3729.2471-.5966.2471Z" fill="#C2C5C6"/>
  <path d="M2.53125 39.6562H44.7188v1.6876c0 .4475-.1778.8767-.4943 1.1932s-.7457.4942-1.1933.4942H4.21875c-.44755 0-.87678-.1777-1.19324-.4942-.31647-.3165-.49426-.7457-.49426-1.1932v-1.6876Z" fill="#FDD14B"/>
  <path d="M36.2812 48.0938c2.796 0 5.0626-2.2666 5.0626-5.0626 0-2.7959-2.2666-5.0624-5.0626-5.0624-2.7959 0-5.0624 2.2665-5.0624 5.0624 0 2.796 2.2665 5.0626 5.0624 5.0626Z" fill="#6A7073"/>
  <path d="M36.2812 44.7188c.932 0 1.6876-.7556 1.6876-1.6876 0-.9319-.7556-1.6874-1.6876-1.6874-.9319 0-1.6874.7555-1.6874 1.6874 0 .932.7555 1.6876 1.6874 1.6876Z" fill="#99A2A7"/>
  <path d="M10.9688 48.0938c2.7959 0 5.0624-2.2666 5.0624-5.0626 0-2.7959-2.2665-5.0624-5.0624-5.0624-2.79599 0-5.06255 2.2665-5.06255 5.0624 0 2.796 2.26656 5.0626 5.06255 5.0626Z" fill="#6A7073"/>
  <path d="M10.9688 44.7188c.9319 0 1.6874-.7556 1.6874-1.6876 0-.9319-.7555-1.6874-1.6874-1.6874-.932 0-1.68755.7555-1.68755 1.6874 0 .932.75555 1.6876 1.68755 1.6876Z" fill="#99A2A7"/>
  <path d="M16.0312 36.2812h15.1876v1.6876c0 .4475-.1778.8767-.4943 1.1932s-.7457.4942-1.1933.4942H17.7188c-.4476 0-.8768-.1777-1.1933-.4942s-.4943-.7457-.4943-1.1932v-1.6876Z" fill="#EA8333"/>
  <path d="M30.5285 32.9062c.8472 0 1.534.7555 1.534 1.6876 0 .932-.6868 1.6874-1.534 1.6874h-13.807c-.8472 0-1.534-.7554-1.534-1.6874 0-.9321.6868-1.6876 1.534-1.6876h13.807Z" fill="#794832"/>
  <path d="M16.875 29.5312h13.5v3.375h-13.5v-3.375Z" fill="#FDD14B"/>
  <path d="M32.9062 30.375c0 1.398-1.1872 2.5313-2.6518 2.5313-.4323.0033-.8591-.098-1.244-.2951-.3848-.1971-.7163-.4843-.9663-.8372-.2522.3503-.5841.6357-.9682.8325-.3842.1968-.8097.2994-1.2413.2994-.4317 0-.8571-.1026-1.2413-.2994-.3842-.1968-.7161-.4822-.9683-.8325-.2522.3503-.5841.6357-.9683.8325-.3842.1968-.8096.2994-1.2413.2994-.4316 0-.8571-.1026-1.2413-.2994-.3841-.1968-.716-.4822-.9682-.8325-.25.3529-.5815.6401-.9664.8372-.3848.1971-.8116.2984-1.2439.2951-1.4646 0-2.6518-1.1333-2.6518-2.5313 0-.2238.0888-.4384.2471-.5966.1582-.1583.3728-.2472.5966-.2472h16.875c.2238 0 .4384.0889.5966.2472.1583.1582.2471.3728.2471.5966Z" fill="#3BA673"/>
  <path d="M31.2188 22.7813v-6.75c-.0001-.1687.0505-.3334.145-.4731.0946-.1396.2288-.2477.3854-.3104l4.2187-1.6875c.1029-.0411.2129-.0616.3237-.0602.1108.0013.2202.0245.322.0681.1019.0437.1941.107.2715.1863.0774.0793.1384.173.1796.2759.0411.1029.0616.2129.0603.3237-.0014.1108-.0246.2202-.0682.3221-.0437.1018-.1069.1941-.1862.2714-.0794.0774-.1731.1384-.276.1796l-3.6883 1.4753v6.1788h-1.6875Z" fill="#E74444"/>
  <path d="M31.2188 19.4062h1.6874v3.375h-1.6874v-3.375Z" fill="#CE3536"/>
</svg>
